<svg width="75" height="157" viewBox="0 0 75 157" fill="none" xmlns="http://www.w3.org/2000/svg">
<path d="M30.3265 1.18934C26.8311 1.68396 25.1894 8.10036 24.6379 10.8361C23.328 17.3339 24.1684 25.426 26.3472 31.6085C29.9653 41.8748 39.5295 47.7673 49.7199 49.921C54.9361 51.0234 70.3152 53.3598 71.2415 44.7492C72.0504 37.2289 65.7365 33.9729 58.9719 33.2564C47.4596 32.0371 37.2464 35.7436 28.884 43.7249C21.5035 50.769 16.9509 59.3269 16.4973 69.6277C16.2817 74.5256 16.2249 78.8081 18.4468 83.3008C20.7596 87.9775 24.1711 91.7602 27.719 95.5172C32.1205 100.178 39.1582 105.164 45.935 104.961C52.496 104.764 55.6721 97.2738 55.2883 91.6731C54.6882 82.915 45.2351 78.1641 37.2519 78.1501C27.3327 78.1325 20.8165 84.7253 14.128 91.307C0.870282 104.353 -0.254643 125.405 11.9542 139.659C16.1093 144.51 21.6517 147.032 27.1656 149.585" stroke="#FFE06C" stroke-width="2" stroke-linecap="round"/>
<path d="M26.5928 155.306L16.0094 155.623" stroke="#FFE06C" stroke-width="2" stroke-linecap="round"/>
<path d="M32.4707 133.944L32.9098 148.598" stroke="#FFE06C" stroke-width="2" stroke-linecap="round"/>
</svg>
