<svg width="120" height="42" viewBox="0 0 120 42" fill="none" xmlns="http://www.w3.org/2000/svg">
<path d="M1.53638 2.01605C4.8194 1.97798 8.1043 1.90138 11.3875 1.91705C17.8795 1.94803 23.3426 4.07417 27.2292 9.45029C27.839 10.2938 28.6463 11.8161 29.401 13.6468M29.401 13.6468C31.7956 19.455 33.662 28.3689 27.0205 28.57C24.4037 28.6493 22.4019 28.301 20.8122 26.024C19.3932 23.9914 19.4109 21.133 20.7314 19.0538C22.6462 16.0389 25.9663 14.4965 29.401 13.6468ZM29.401 13.6468C30.7324 13.3175 32.0809 13.0922 33.3714 12.9255C39.7083 12.1072 45.7333 12.9975 51.1047 16.5707C53.5369 18.1887 55.3894 20.3616 56.6108 22.8769M56.6108 22.8769C57.3319 24.3619 57.833 25.9663 58.1036 27.6464C58.5637 30.5034 59.2901 34.4235 57.2114 36.8653C55.8997 38.4062 53.4494 38.7595 51.6003 38.1024C48.8573 37.1276 48.1934 34.2459 48.2051 31.612C48.2255 27.0156 52.7881 24.4213 56.6108 22.8769ZM56.6108 22.8769C56.6698 22.8531 56.7285 22.8296 56.7871 22.8063C65.0365 19.5223 74.4472 19.268 82.89 21.8643C91.501 24.5123 99.9717 29.013 107.438 33.9998C109.328 35.2616 110.998 36.6919 112.622 38.2624M94.8813 37.1031C98.7143 37.0587 103.64 36.5341 106.929 38.9188M112.23 22.9613C112.308 29.6612 115.69 35.0708 118.992 40.6434" stroke="#1F73F0" stroke-width="2" stroke-linecap="round"/>
</svg>
