<svg width="109" height="71" viewBox="0 0 109 71" fill="none" xmlns="http://www.w3.org/2000/svg">
<path d="M-3.88617 10.6956C-3.88617 17.8618 -4.19718 25.0972 -3.79103 32.2508C-3.16423 43.2904 3.4922 51.891 14.8943 52.8919C27.4613 53.9951 38.8124 49.0872 47.3366 39.9436C54.5808 32.1731 61.4302 21.3437 61.3792 10.3148C61.3528 4.62061 57.3143 1.55527 51.9223 1.00341C44.6168 0.255708 39.1603 5.46923 36.7762 11.9905C33.6591 20.5168 34.0932 30.9587 38.9644 38.7249C46.1317 50.1517 59.6706 53.4772 72.3392 54.0725C87.9755 54.8074 105.748 45.9707 107.883 28.8804C108.421 24.575 107.986 19.9164 103.088 18.7312C95.5522 16.9075 88.8349 20.1865 83.9461 25.8528C74.7893 36.4659 75.9316 53.0203 86.5339 62.07C89.5911 64.6795 92.7412 66.5143 96.3142 68.2776C97.0108 68.6214 99.2702 69.0907 99.5489 69.6486" stroke="#1F73F0" stroke-width="1.58577" stroke-linecap="round"/>
</svg>
