<svg width="44" height="44" viewBox="0 0 44 44" fill="none" xmlns="http://www.w3.org/2000/svg">
<path d="M20.2968 38.5177C20.7058 38.9057 20.5186 39.2634 20.2516 39.6268C20.1053 39.8255 19.884 40.0303 19.8617 40.2496C19.7563 41.2873 19.0927 41.6819 18.2031 41.855C18.0465 41.8852 17.8883 41.9056 17.752 41.9273C17.6913 41.9961 17.628 42.0363 17.6114 42.091C17.1072 43.7339 15.4679 44.2664 14.0487 43.8796C13.3321 43.6842 12.6533 43.4359 12.0716 42.943C11.196 42.2011 10.6438 41.3515 11.0975 40.1223C10.4109 39.5319 9.51655 39.1187 9.52512 38.0343C9.52964 37.4356 9.61052 36.8612 10.1366 36.488C9.68547 34.9809 9.76637 34.7872 11.2715 33.7268C11.4166 32.4337 11.5774 31.1447 11.6969 29.8518C11.7335 29.4553 11.8096 29.0591 11.3778 28.7158C8.93221 26.7716 8.00717 24.1193 8.14992 21.0555C8.29601 17.924 9.37237 15.1308 11.5482 12.8862C13.5191 10.8531 16.0185 9.95794 18.7991 9.7684C21.9373 9.55442 24.6527 10.5653 27.0217 12.6063C28.7121 14.0626 30.0759 15.7878 30.7131 17.9765C31.8011 21.7154 31.1742 25.1689 28.8639 28.2958C27.3898 30.2912 25.4548 31.601 23.121 32.3332C22.7907 32.4368 22.4833 32.6157 22.16 32.7622C22.0275 33.7026 21.9318 34.6079 21.7662 35.4999C21.5638 36.5887 21.3489 36.7504 20.2652 36.6179C19.6658 36.5448 19.0732 36.3858 18.4886 36.2236C16.4242 35.6516 14.355 35.0937 12.3091 34.4583C11.6976 34.2683 11.2289 34.4985 10.7733 34.7374C10.1968 35.0397 10.285 35.8903 10.9041 36.258C11.1765 36.4197 11.4889 36.5361 11.798 36.6051C14.2602 37.1556 16.698 37.8539 19.2381 37.9553C19.7165 37.9745 20.2057 37.9796 20.6746 37.8992C21.0146 37.8409 21.3294 37.6307 21.629 37.5C21.6725 37.9478 21.5402 38.186 21.0456 38.3516C20.8091 38.4308 20.5628 38.4804 20.3216 38.5438C17.1848 38.3436 14.1004 37.8319 11.0944 36.8825C10.6617 36.7458 10.438 36.8537 10.2848 37.37C10.5953 37.5388 10.8779 37.7571 11.1963 37.8544C13.0314 38.4155 14.8615 39.004 16.7218 39.4641C17.5124 39.6597 18.3768 39.636 19.1991 39.5793C19.7608 39.5399 20.3463 39.3128 20.2968 38.5177ZM17.4453 35.3907C18.3723 35.6369 19.2899 35.9242 20.2264 36.1154C20.9878 36.2708 21.1519 36.1314 21.2835 35.4004C21.3925 34.7943 21.5031 34.1797 21.5169 33.5668C21.539 32.5854 22.0594 32.0885 22.9233 31.8513C23.0777 31.8089 23.2323 31.7639 23.3824 31.7082C27.2858 30.2645 29.7048 27.4511 30.5361 23.3452C31.2929 19.6075 30.1333 16.3784 27.4942 13.7239C24.3703 10.5815 20.6423 9.52005 16.3794 10.6938C14.3678 11.2476 12.58 12.2241 11.2684 13.9641C9.29005 16.5883 8.37143 19.5092 8.72783 22.8238C8.96956 25.0701 9.88438 26.9381 11.6807 28.2988C12.1299 28.6391 12.2724 29.0242 12.2153 29.55C12.1204 30.4236 12.0271 31.2977 11.951 32.1732C11.9036 32.7169 11.8894 33.2637 11.8591 33.8308C12.8046 34.069 13.6619 34.2852 14.5032 34.497C14.5679 34.406 14.6278 34.359 14.6374 34.3029C14.93 32.5729 15.2709 30.8489 15.4908 29.1092C15.6947 27.4963 15.4446 25.9309 14.6683 24.4737C14.3944 23.9598 14.1456 23.4248 13.9505 22.8758C13.3571 21.2066 14.0478 20.2555 15.7872 20.3076C15.8831 20.3105 15.9792 20.3201 16.0742 20.3339C16.9811 20.4659 17.8177 20.8856 18.746 20.9698C19.0844 21.0006 19.4167 21.332 19.7084 21.5793C19.8974 21.7393 20.0073 21.9957 20.111 22.1475C21.757 21.462 22.1876 21.6607 23.1076 23.4011C23.3134 23.4011 23.5352 23.3963 23.7564 23.4021C24.7757 23.4285 25.1923 23.8869 25.1688 24.9324C25.1447 25.9965 24.4574 26.5808 23.6387 27.0025C22.9002 27.3828 22.1238 27.7229 21.3275 27.9424C19.993 28.3101 19.3175 29.2447 18.9347 30.494C18.441 32.103 17.9545 33.7151 17.4453 35.3907ZM17.0328 21.0756C16.6138 20.9739 16.2885 20.8505 15.9552 20.8217C14.4277 20.6893 13.9291 21.3436 14.4575 22.8139C14.6764 23.4231 14.9707 24.007 15.2629 24.5858C15.8631 25.7741 16.1441 27.0391 16.0475 28.3598C15.965 29.4916 15.7894 30.6184 15.6138 31.7409C15.4646 32.6951 15.2569 33.6399 15.0606 34.6657C15.7515 34.8761 16.3475 35.0579 16.9861 35.2522C17.0946 34.9443 17.1915 34.7074 17.2621 34.4629C17.649 33.1223 18.0101 31.7736 18.4172 30.4393C18.8545 29.0058 19.5821 27.8282 21.1591 27.4629C21.4684 27.3913 21.7755 27.2835 22.0634 27.148C22.6996 26.8483 23.3346 26.5419 23.9473 26.1967C24.3955 25.944 24.6013 25.4945 24.6779 24.9898C24.7629 24.4301 24.5461 24.0343 24.1031 23.9189C23.5014 23.762 23.1241 23.9501 22.9097 24.5165C22.8638 24.638 22.8407 24.7702 22.7836 24.8854C22.5754 25.3054 22.2464 25.4366 21.9361 25.2347C21.6163 25.0268 21.5776 24.6731 21.8476 24.3161C21.9447 24.1878 22.0596 24.0697 22.1812 23.9649C22.5107 23.6817 22.4883 23.3629 22.3237 22.9986C21.9587 22.1913 21.3342 22.0765 20.5766 22.6919C20.6242 23.0107 20.6854 23.328 20.7158 23.6485C20.7517 24.0264 20.6975 24.4284 20.2878 24.5236C20.0106 24.5879 19.5597 24.5601 19.4194 24.3829C19.2404 24.1573 19.2114 23.7211 19.2749 23.4086C19.3416 23.0809 19.5947 22.7923 19.796 22.4333C19.3425 21.9918 19.0242 21.4053 18.2921 21.4624C18.2921 21.9758 18.3371 22.4326 18.2807 22.8763C18.2117 23.4193 17.8229 23.716 17.3225 23.8504C16.8617 23.9741 16.2607 23.7569 16.0349 23.4028C15.7416 22.9426 15.9112 22.5161 16.1696 22.1288C16.3835 21.8086 16.6559 21.53 17.0328 21.0756ZM19.5072 40.162C16.1598 40.3181 13.1637 38.9643 10.0321 38.003C10.0866 38.8902 10.6921 39.2773 11.3362 39.5295C12.7647 40.0894 14.2136 40.6001 15.6718 41.075C16.2424 41.261 16.8567 41.3423 17.4575 41.3919C18.5362 41.4812 19.1339 41.1113 19.5072 40.162ZM11.5929 40.3162C11.2653 41.0383 11.4889 41.619 11.9826 42.1665C12.7609 43.0297 13.7658 43.4119 14.8601 43.5368C15.8762 43.6528 16.8693 42.9191 17.1393 42.0389C15.2931 41.4655 13.447 40.892 11.5929 40.3162ZM17.8167 22.1683C17.7846 22.1133 17.6959 21.8071 17.4981 21.6878C17.3966 21.6266 17.0822 21.8752 16.8983 22.0269C16.7558 22.1443 16.614 22.3135 16.5667 22.4866C16.5067 22.7066 16.4494 23.0366 16.5617 23.167C16.6899 23.3161 17.0244 23.3827 17.2364 23.3348C17.6989 23.2302 17.8845 22.8645 17.8167 22.1683ZM19.6263 24.0677C20.3832 23.8504 20.3896 23.824 19.9433 23.1131C19.8379 23.4306 19.7563 23.6763 19.6263 24.0677Z" fill="white"/>
<path d="M35.1748 23.2291C37.8914 22.6053 40.6025 21.8968 43.4126 22.6673C43.4255 22.7382 43.4381 22.8092 43.4507 22.8801C43.298 22.9372 43.1312 23.0677 42.9941 23.0408C40.5728 22.564 38.2174 23.1255 35.8479 23.4802C35.6359 23.5119 35.4156 23.4843 35.1991 23.4843C35.1912 23.3991 35.1831 23.3141 35.1748 23.2291Z" fill="white"/>
<path d="M24.7754 6.56561C25.0326 5.61504 25.2389 4.64606 25.5603 3.71823C25.9419 2.61709 26.4116 1.54645 26.8677 0.473633C26.9843 0.199376 27.1358 -0.13564 27.6707 0.0570414C26.349 2.10247 26.0247 4.52042 25.0062 6.64476C24.9291 6.61813 24.8522 6.59176 24.7754 6.56561Z" fill="white"/>
<path d="M2.09922 6.25537C2.31716 6.32557 2.56888 6.34687 2.7478 6.47396C4.14845 7.47053 5.49628 8.52907 6.48794 9.96498C6.44464 10.0158 6.40134 10.0666 6.35827 10.1175C4.92122 8.9016 3.48417 7.68597 2.04688 6.47009C2.06424 6.39844 2.08161 6.32678 2.09922 6.25537Z" fill="white"/>
<path d="M35.8476 34.825C35.6632 34.8047 35.4917 34.8354 35.381 34.7657C34.6892 34.3297 31.7351 31.073 31.4648 30.4775C32.0965 30.7431 35.4845 34.0751 35.8476 34.825Z" fill="white"/>
<path d="M33.9199 12.4308C35.4391 11.2639 37.5406 10.6621 38.834 11.0668C38.3715 11.5827 37.7393 11.2138 37.2508 11.4648C36.7169 11.739 36.1179 11.8816 35.5473 12.082C35.0198 12.2675 34.4928 12.4534 33.9654 12.639C33.9501 12.5698 33.9351 12.5003 33.9199 12.4308Z" fill="white"/>
<path d="M4.34 19.6506C2.77637 20.4308 1.23488 20.789 -0.273316 21.238C-0.335652 21.2567 -0.447235 21.1039 -0.548828 21.0204C0.300318 20.4351 3.2841 19.5714 4.34 19.6506Z" fill="white"/>
<path d="M15.4738 4.99244C14.7795 3.55532 14.0834 2.11916 13.3991 0.676952C13.3753 0.626603 13.4726 0.516713 13.5797 0.302246C14.7622 1.68152 15.1814 3.30358 15.6787 4.88861C15.6104 4.92322 15.5421 4.95783 15.4738 4.99244Z" fill="white"/>
</svg>
