<svg width="32" height="32" viewBox="0 0 32 32" fill="none" xmlns="http://www.w3.org/2000/svg">
<path d="M9.10543 32.0002C9.10543 30.9046 9.10543 29.8088 9.10543 28.7165C9.78598 28.625 9.98238 28.4559 9.99898 27.9635C10.0129 27.5509 9.90815 27.4601 9.25349 27.3181C9.02907 26.3585 8.81674 25.3955 8.57825 24.4399C8.20391 22.9399 7.79477 21.4492 7.43106 19.9463C6.83084 17.4669 6.13276 15.0111 5.76479 12.4741C5.67688 11.868 5.53452 11.2705 5.4008 10.5841C7.58961 10.7063 9.70897 10.9802 11.8306 11.2261C13.9579 11.4726 16.0755 11.7861 18.2422 12.3066C18.1829 12.1065 18.1508 11.9981 18.1114 11.8648C19.7345 10.5348 21.3331 9.1537 23.0054 7.87811C24.2313 6.94294 25.5574 6.15252 26.8318 5.28605C28.1799 4.36951 29.5284 3.45297 30.8575 2.50654C31.2223 2.24677 31.5217 1.88467 31.8421 1.55955C31.9108 1.48988 31.9399 1.37724 31.998 1.26321C30.5011 1.44274 29.047 1.34053 27.5937 1.22316C26.7387 1.15419 25.8841 1.07492 25.0307 0.984675C23.5382 0.826982 22.0468 0.657331 20.5549 0.492685C19.5772 0.384776 18.5998 0.27631 17.622 0.169652C17.0724 0.109717 16.523 0.0436632 15.9722 0.0016674C15.8442 -0.00806673 15.685 0.0325379 15.5827 0.110967C14.1495 1.20995 12.5624 2.03763 11.0269 2.95597C9.67776 3.76279 8.31226 4.54013 6.96762 5.35488C4.8958 6.61031 2.83474 7.88492 0.771818 9.15606C0.528545 9.30596 0.301741 9.48521 -0.00195312 9.69978C1.69048 10.2748 3.37401 10.368 5.11743 10.5785C5.63041 13.3983 6.1848 16.2267 6.92658 19.0121C7.66384 21.7809 8.32873 24.571 9.04554 27.4323C8.93718 27.5148 8.80081 27.5823 8.71449 27.6928C8.5825 27.8616 8.52779 28.0728 8.6886 28.2569C8.85445 28.4469 8.82006 28.657 8.82245 28.8837C8.83095 29.7257 8.85883 30.5678 8.89389 31.4091C8.90212 31.6062 8.96693 31.8006 9.0057 31.9964C9.03877 31.9975 9.0721 31.9989 9.10543 32.0002ZM31.1943 1.69457C31.2152 1.73045 31.2362 1.76633 31.2573 1.8022C30.9706 2.04514 30.7013 2.31603 30.3943 2.52642C28.7948 3.62235 27.1845 4.70116 25.5802 5.78958C24.546 6.49127 23.4777 7.14624 22.4926 7.91718C20.9623 9.11462 19.4864 10.3884 17.9972 11.6426C17.8122 11.7983 17.6461 11.8762 17.4151 11.8206C17.2064 11.7702 16.9935 11.7384 16.7818 11.7018C15.6729 11.5102 14.5675 11.2902 13.4537 11.137C12.2313 10.9688 11.0017 10.8586 9.77444 10.7303C7.41101 10.4835 5.04638 10.2499 2.68402 9.99278C2.01727 9.92019 1.35664 9.7853 0.693209 9.67892C0.68564 9.63915 0.677938 9.59938 0.670368 9.55961C0.829321 9.45323 0.984556 9.34003 1.14789 9.2413C4.33569 7.31339 7.52269 5.38381 10.7137 3.46173C12.3706 2.46357 14.0852 1.56831 15.655 0.414255C15.7636 0.334435 15.9184 0.284514 16.0508 0.286461C16.3718 0.290911 16.693 0.325674 17.0125 0.363359C18.1114 0.493101 19.2089 0.636471 20.3083 0.761624C21.6938 0.919317 23.0796 1.07798 24.4674 1.21092C25.9088 1.34901 27.3519 1.4661 28.7955 1.57401C29.5939 1.6338 30.3946 1.65577 31.1943 1.69457ZM9.26146 27.7499C9.44989 27.7171 9.69489 27.555 9.74947 27.9157C9.78625 28.1592 9.56648 28.3972 9.34551 28.3906C9.11738 28.3837 8.87198 28.1597 8.88765 27.9464C8.90637 27.6929 9.05536 27.6526 9.26146 27.7499Z" fill="#0D1830"/>
<path d="M25.9589 7.5084C26.7955 9.98184 27.2675 12.4763 28.1943 14.8207C28.0447 13.495 27.5657 12.2595 27.2451 10.9821C26.9246 9.7047 26.5415 8.44441 26.1788 7.15186C25.7074 7.30552 25.3287 7.53691 24.9748 7.82323C23.7162 8.8417 22.4698 9.87783 21.1901 10.8665C20.2566 11.5878 19.2752 12.241 18.3215 12.9339C18.0991 13.0955 17.8693 13.1318 17.6106 13.1021C16.0126 12.9186 14.4144 12.7376 12.8159 12.5606C11.8222 12.4504 10.8273 12.352 9.83364 12.242C9.23023 12.1752 8.62894 12.0844 8.02461 12.0298C7.8229 12.0115 7.61469 12.0722 7.42068 12.0954C7.38323 13.1485 8.35991 18.6287 8.72416 19.3838C8.82309 19.1766 8.7786 19.0104 8.74926 18.8431C8.4206 16.9696 8.09074 15.0963 7.76899 13.2215C7.72198 12.9481 7.71534 12.6671 7.68719 12.3588C8.03896 12.3588 8.35526 12.3307 8.6656 12.3635C10.4076 12.5478 12.1481 12.7481 13.8892 12.9399C14.8656 13.0474 15.8426 13.1493 16.8193 13.2535C16.8549 13.2572 16.8942 13.2486 16.9259 13.2615C17.6414 13.5529 18.2605 13.2713 18.8369 12.8722C19.8498 12.1709 20.863 11.4671 21.8416 10.7151C23.0513 9.78535 24.2244 8.80346 25.4174 7.84965C25.5693 7.72826 25.7465 7.64093 25.9589 7.5084Z" fill="#0D1830"/>
<path d="M8.96745 20.1095C9.29027 20.2911 9.60539 20.4898 9.9371 20.651C11.1187 21.2249 12.3649 21.5162 13.666 21.5706C16.1644 21.675 18.5729 21.2179 20.9196 20.3396C22.5397 19.7332 24.1239 19.0506 25.5473 18.0197C26.6264 17.2383 27.5996 16.3307 28.4386 15.2711C28.4993 15.1943 28.5318 15.0931 28.5781 15.002C28.3602 14.861 28.2967 15.0352 28.2091 15.1376C27.4436 16.0314 26.6229 16.8608 25.6904 17.5665C24.3607 18.573 22.8968 19.311 21.3566 19.8698C20.2286 20.279 19.0813 20.6535 17.917 20.9237C15.9632 21.3772 13.9764 21.4474 12.0033 21.0672C11.311 20.9338 10.6524 20.6033 9.98172 20.3533C9.66753 20.236 9.36092 20.0961 9.05098 19.9665C9.02323 20.0142 8.99534 20.0618 8.96745 20.1095Z" fill="#0D1830"/>
<path d="M9.88943 28.5095C10.0818 28.8075 10.2567 28.9959 10.3377 29.2212C10.4992 29.6704 10.6119 30.139 10.739 30.6014C10.816 30.8816 10.8823 31.165 11.0426 31.4489C11.0592 31.3583 11.0938 31.2666 11.0895 31.1772C11.0539 30.4436 10.8589 29.7467 10.5887 29.0767C10.4863 28.823 10.3632 28.5268 9.88943 28.5095Z" fill="#0D1830"/>
<path d="M9.34343 28.933C9.51898 29.8117 9.6944 30.6903 9.86995 31.5689C9.91125 31.5676 9.95255 31.5665 9.99385 31.5653C9.99385 31.3823 10.0144 31.1962 9.99 31.0168C9.91709 30.4824 9.84074 29.9474 9.73531 29.4194C9.69627 29.2236 9.5725 29.0465 9.48738 28.8608C9.43931 28.885 9.39137 28.909 9.34343 28.933Z" fill="#0D1830"/>
</svg>
