<svg width="64" height="30" viewBox="0 0 64 30" fill="none" xmlns="http://www.w3.org/2000/svg">
<path d="M19.0546 28.314C20.2339 28.314 21.4479 28.198 22.5285 27.6496C22.9149 27.4536 23.2738 27.2143 23.6736 27.0457C23.9093 26.9463 24.1256 26.822 24.3105 26.6364C24.7587 26.1861 25.1932 25.7156 25.6292 25.2608C26.1155 24.7536 26.4508 24.0506 26.7679 23.4221C27.1101 22.7439 27.2761 21.897 27.2761 21.1272C27.2761 20.1494 26.9913 19.2214 26.2919 18.5302C25.7944 18.0387 24.8979 18.1075 24.2622 18.1075C23.4446 18.1075 22.5514 18.0736 21.7629 18.2887C21.2612 18.4256 20.7266 18.5317 20.3284 18.906C19.9814 19.2321 19.7807 19.6507 19.6336 20.1072C19.348 20.9933 19.1546 21.9282 19.0224 22.8517C18.8362 24.153 18.5951 25.8752 19.7494 26.7907C20.2585 27.1946 20.9695 27.2945 21.4895 26.8779C22.3053 26.2246 23.0006 25.2996 23.6285 24.4244M23.6285 24.4244C23.651 24.3931 23.6734 24.3619 23.6956 24.3308M23.6285 24.4244V24.6971C23.6285 25.1203 23.6825 25.0829 23.6864 24.6971C23.6877 24.5751 23.6908 24.453 23.6956 24.3308M23.6285 24.4244V21.0936C23.6285 20.8589 23.5144 20.2653 23.6414 20.0401C23.7416 19.8623 24.192 19.9095 24.4163 19.9162M23.6956 24.3308C23.7674 24.2304 23.8383 24.1309 23.9084 24.0328C24.4328 23.2982 24.8348 22.4854 25.0438 21.5935C25.0524 21.5569 25.1367 21.2096 25.1339 21.2815C25.1134 21.815 24.9475 22.3451 24.8122 22.8551C24.6462 23.4814 24.4169 24.174 24.2961 24.8569M23.6956 24.3308C23.7502 22.9525 24.0244 21.5635 24.3458 20.2347C24.3587 20.1814 24.383 20.0494 24.4163 19.9162M24.2961 24.8569C24.2455 25.1427 24.214 25.4268 24.214 25.7036C24.214 25.8875 25.0316 25.2069 25.0985 25.1433C25.1497 25.0947 25.8222 24.4937 25.8222 24.5461C25.8222 24.8151 25.2579 25.2333 25.076 25.3815C24.7843 25.6193 24.4763 25.8211 24.1368 25.972C23.8855 26.0838 23.6457 26.1719 23.3841 26.2472C22.9393 26.3752 23.244 26.0213 23.4034 25.8311C23.6857 25.4943 23.9877 25.1731 24.2961 24.8569ZM24.2961 24.8569C25.094 24.0388 25.9348 23.2537 26.5878 22.3149C26.906 21.8574 27.19 21.3441 27.1571 20.7614C27.1487 20.612 26.9315 19.3758 26.8387 19.3758C26.5813 19.3758 26.3151 19.5901 26.1471 19.7784C25.8414 20.1209 25.7807 20.5368 25.7708 20.9672M25.7708 20.9672C25.7669 21.1358 25.7708 21.3066 25.7708 21.4761M25.7708 20.9672V21.4761M25.7708 20.9672V19.9327C25.7708 20.5664 25.6998 21.1761 25.6582 21.8049C25.6292 22.2427 25.4839 21.7852 25.388 21.5667C25.1432 21.0088 24.9544 20.4582 24.7585 19.8887M25.7708 21.4761V22.2813M24.7585 19.8887C24.739 19.832 24.7194 19.7751 24.6997 19.718C24.6833 19.6707 24.6673 19.6354 24.6517 19.6104M24.7585 19.8887C24.6333 19.9073 24.5249 19.914 24.4938 19.9159C24.4731 19.9172 24.4468 19.9171 24.4163 19.9162M24.7585 19.8887C24.9757 19.8564 25.2433 19.7884 25.2433 19.6475C25.2433 19.6229 24.9803 19.6132 24.6517 19.6104M24.6517 19.6104C24.6064 19.538 24.564 19.5514 24.526 19.6096M24.6517 19.6104C24.6107 19.61 24.5686 19.6098 24.526 19.6096M24.526 19.6096C24.4834 19.6747 24.4462 19.7959 24.4163 19.9162M24.526 19.6096C24.0575 19.6079 23.512 19.6173 23.397 19.6173M19.7989 1.05967C17.3001 1.05967 14.7523 0.897669 12.2626 1.10753C6.84867 1.56387 3.57623 6.95843 1.92736 11.8284C0.0961391 17.2369 0.787597 22.4493 5.71273 25.5764C10.5461 28.6452 18.6006 30.4404 23.8596 27.5148C26.2305 26.1957 28.6897 23.1461 28.1726 20.1083C27.5705 16.5717 22.4033 16.1808 19.7874 16.0521C15.766 15.8542 11.8213 17.3802 9.36045 20.8262C8.11245 22.5738 7.81852 24.3705 7.61688 26.4738M25.0181 18.7114H23.5133M23.5133 18.7114H22.3645C21.7642 18.7114 20.8802 18.5766 20.3412 18.9329C19.9647 19.1817 19.8446 19.6468 19.8105 20.1249M23.5133 18.7114C23.3216 18.9265 23.1423 19.1064 23.0753 19.1979C23.0133 19.2826 22.9223 19.4142 22.8101 19.5824M23.5133 18.7114C23.8757 18.3049 24.2826 17.7725 24.0596 17.4734C23.8871 17.242 23.3632 17.3195 23.1203 17.2754C22.6503 17.1901 22.1809 17.1383 21.7051 17.0674C21.1181 16.9799 20.5709 16.77 19.9939 16.6346C19.4434 16.5054 18.8747 16.5373 18.3148 16.5373C17.8417 16.5373 17.3555 16.5041 16.8835 16.5406C16.3137 16.5846 15.7618 16.912 15.2334 17.111C14.6984 17.3125 14.2075 17.5811 13.6572 17.7451C13.0831 17.9162 12.5481 18.0807 12.0747 18.4799C11.1911 19.2251 10.4743 20.272 9.80382 21.2211C9.68564 21.3884 9.6481 21.5997 9.60439 21.8049C9.57265 21.9539 9.54016 22.108 9.50532 22.2639M19.8105 20.1249C19.8056 20.1937 19.8025 20.2628 19.8007 20.3315M19.8105 20.1249C19.8523 20.1196 19.8941 20.1148 19.936 20.1105C20.0109 20.103 20.2129 20.0703 20.1611 20.1273C20.0814 20.2151 19.9407 20.2789 19.8007 20.3315M19.8105 20.1249C19.2337 20.1983 18.6633 20.373 18.1122 20.5534C18.0832 20.5629 18.0544 20.5724 18.0255 20.5821M19.8007 20.3315C19.7932 20.6087 19.8065 20.8804 19.8073 21.107C19.8073 21.1227 19.8074 21.1383 19.8075 21.154M19.8007 20.3315C19.6891 20.3735 19.578 20.4084 19.4985 20.4427C18.9466 20.6811 18.3985 20.9296 17.845 21.1643M19.8075 21.154C19.808 21.2462 19.8092 21.3382 19.8113 21.4298M19.8075 21.154C19.9838 21.1662 20.1596 21.1866 20.3342 21.2175M19.8075 21.154C19.5016 21.1329 19.1938 21.1367 18.8874 21.154C18.5298 21.1742 18.1727 21.2108 17.8177 21.2637M19.8113 21.4298C19.8163 21.6595 19.8264 21.8871 19.8438 22.1128M19.8113 21.4298C19.0867 21.56 18.3718 21.7419 17.6626 21.9464M19.8113 21.4298C19.977 21.4 20.1433 21.3729 20.3102 21.3488M19.8438 22.1128C19.861 22.337 19.8853 22.5592 19.9189 22.7795M19.8438 22.1128C19.9908 22.0978 20.1328 22.0975 20.2219 22.1316M19.8438 22.1128C19.5934 22.1384 19.3286 22.2067 19.2862 22.2209C18.9721 22.3264 18.6721 22.4771 18.3861 22.6614M19.9189 22.7795C19.9444 22.9473 19.9753 23.114 20.0124 23.2796M19.9189 22.7795C19.5477 23.0718 19.028 23.2564 18.6654 23.3785C18.3444 23.4866 17.9859 23.5827 17.6227 23.6332M19.9189 22.7795C20.034 22.6889 20.1348 22.5878 20.2123 22.4751M20.0124 23.2796C20.0799 23.5808 20.1681 23.8784 20.2826 24.1727M20.0124 23.2796C20.0753 23.0561 20.1436 22.8361 20.2147 22.6214M20.0124 23.2796C19.8266 23.9397 19.6878 24.6304 19.6623 25.3063M20.2826 24.1727C20.315 24.256 20.3495 24.3391 20.3863 24.422C20.5856 24.871 20.8768 25.5239 21.3062 25.7976C21.7273 26.066 22.9693 22.5225 23.0689 22.1606C23.1371 21.9127 23.5584 20.1977 22.9467 20.6178M20.2826 24.1727C20.086 24.6993 19.9951 25.1301 20.0818 25.3724M20.2826 24.1727C20.4518 23.7195 20.6993 23.1953 20.9793 22.6593M22.9467 20.6178C22.8978 20.6514 22.8423 20.6987 22.7794 20.7614C21.9652 21.5746 21.0996 23.4064 21.4863 24.6166C21.5323 24.7605 21.5556 24.8697 21.6697 24.6971C22.1806 23.9243 22.4655 22.8778 22.6893 21.9827C22.7913 21.5749 22.9071 21.0917 22.9467 20.6178ZM22.9467 20.6178C22.9726 20.3082 22.9659 20.0026 22.9016 19.7247C22.8834 19.6462 22.851 19.602 22.8101 19.5824M22.8101 19.5824C22.6561 19.509 22.3812 19.7836 22.2873 19.8891C22.0291 20.1791 21.8073 20.4886 21.6217 20.8145M22.8101 19.5824C22.5066 20.0375 22.0483 20.7607 21.5918 21.55M21.6217 20.8145C21.2965 21.3855 21.0825 22.0064 20.9793 22.6593M21.6217 20.8145C21.6338 21.0517 21.6183 21.3107 21.5918 21.55M21.6217 20.8145C21.5986 20.3627 21.4756 19.9894 21.1389 19.9797C20.6952 19.9668 20.4573 20.5872 20.3342 21.2175M20.9793 22.6593C20.9313 22.9632 20.9074 23.274 20.9074 23.5899C20.9074 23.6126 20.9042 23.8672 20.9685 23.7442C21.1905 23.3197 21.3279 22.825 21.451 22.3619C21.4849 22.2341 21.5512 21.9148 21.5918 21.55M20.9793 22.6593C21.173 22.2887 21.3822 21.9124 21.5918 21.55M20.3342 21.2175C20.3256 21.2613 20.3176 21.3052 20.3102 21.3488M20.3342 21.2175C20.3645 21.2229 20.3947 21.2285 20.4249 21.2345C20.5521 21.2598 20.7535 21.2902 20.5085 21.3218C20.4423 21.3303 20.3762 21.3393 20.3102 21.3488M20.3102 21.3488C20.2609 21.6367 20.2344 21.9176 20.2219 22.1316M20.2219 22.1316C20.216 22.2318 20.2132 22.3173 20.2126 22.382C20.2123 22.4129 20.2122 22.444 20.2123 22.4751M20.2219 22.1316C20.3073 22.1643 20.344 22.2286 20.2898 22.3417C20.2676 22.3879 20.2416 22.4323 20.2123 22.4751M20.2123 22.4751C20.2125 22.5245 20.2132 22.5737 20.2147 22.6214M20.2147 22.6214C20.2272 23.0218 20.2914 23.3124 20.5053 22.6571C20.6391 22.2471 20.7272 21.8255 20.7787 21.3956C20.8453 20.8398 20.528 21.7412 20.4892 21.8452C20.3967 22.0934 20.3035 22.3533 20.2147 22.6214ZM19.6623 25.3063C19.659 25.393 19.6576 25.4795 19.6582 25.5656M19.6623 25.3063C19.0276 25.2148 18.3318 25.2943 17.6972 25.2943C17.3065 25.2943 16.8939 25.2595 16.5027 25.3224M19.6623 25.3063C19.7001 25.3117 19.7378 25.3178 19.7751 25.3245C19.8344 25.3352 19.9688 25.3514 20.0818 25.3724M19.6582 25.5656C19.6607 25.9217 19.6974 26.2719 19.7783 26.6095C19.8913 27.0807 20.0441 26.831 20.3284 26.6498C20.5511 26.5078 20.902 26.1524 21.0103 25.8982C21.1079 25.6692 20.377 25.5997 20.2737 25.5661C20.2238 25.5498 20.1829 25.5238 20.1503 25.4887M19.6582 25.5656C19.7852 25.5476 19.9121 25.5287 20.0389 25.509C20.0833 25.5021 20.1202 25.4954 20.1503 25.4887M19.6582 25.5656C19.0281 25.6551 18.3952 25.7247 17.7616 25.7774C17.1945 25.8247 16.5783 25.8074 16.014 25.8991M20.1503 25.4887C20.1209 25.4571 20.0982 25.4181 20.0818 25.3724M20.1503 25.4887C20.3622 25.4422 20.2441 25.4025 20.0818 25.3724M9.50532 22.2639C9.50227 22.2776 9.4992 22.2913 9.4961 22.305M9.50532 22.2639C9.50745 22.4492 9.51046 22.653 9.51433 22.6974C9.53016 22.879 9.544 23.0585 9.56121 23.2358M9.50532 22.2639C9.50276 22.041 9.50146 21.845 9.50146 21.9861C9.50146 22.0926 9.49956 22.1989 9.4961 22.305M9.4961 22.305C9.39544 22.751 9.27454 23.2093 9.09618 23.6033C8.90668 24.0219 8.54233 24.5809 8.5172 25.0527C8.48997 25.564 8.24748 26.2183 8.85172 26.4284C9.24931 26.5666 9.75212 26.3697 10.1641 26.472C10.3965 26.5297 10.6272 26.5909 10.8573 26.6511M9.4961 22.305C9.48095 22.77 9.43585 23.232 9.38945 23.694M10.8573 26.6511C11.6364 26.8546 12.4093 27.0457 13.2198 27.0457H15.5357C16.2824 27.0457 17.0018 27.2873 17.7487 27.2873C17.9768 27.2873 20.1619 27.1476 20.2094 27.3208C20.2901 27.6155 19.2767 27.8906 19.1125 27.9382C18.5352 28.1055 17.7445 28.1518 17.144 28.059C16.3443 27.9354 15.5357 27.9516 14.7251 27.9516H12.837C12.4016 27.9516 11.9456 28.0096 11.5826 27.7067C11.2525 27.4312 10.9992 27.0671 10.8573 26.6511ZM10.8573 26.6511C10.8489 26.6262 10.8408 26.6012 10.8331 26.576C10.7292 26.2345 10.5745 25.9219 10.4078 25.6153M10.4078 25.6153C10.2495 25.3242 10.0803 25.0385 9.93327 24.7384M10.4078 25.6153C10.8986 25.6267 11.3899 25.6314 11.8775 25.6635M10.4078 25.6153C10.0677 25.6075 9.7278 25.5964 9.38963 25.5708M9.93327 24.7384C9.92544 24.7225 9.91767 24.7064 9.90997 24.6904C9.68567 24.2224 9.60992 23.7376 9.56121 23.2358M9.93327 24.7384C9.7133 24.8382 9.49442 24.9398 9.27675 25.0435M9.93327 24.7384C10.2297 24.604 10.5281 24.473 10.8282 24.3453M9.56121 23.2358C9.4982 23.3869 9.43988 23.5397 9.38945 23.694M9.56121 23.2358C9.7173 22.8617 9.90223 22.4988 10.0676 22.1538C10.1667 21.9471 10.2943 21.7401 10.3699 21.5231C10.4398 21.3226 10.6579 21.9756 10.6691 22.0029C10.8476 22.4373 11.0154 22.8771 11.1781 23.3195M9.38945 23.694C9.34435 24.143 9.29802 24.5919 9.27675 25.0435M9.38945 23.694C9.30245 23.9601 9.23891 24.2304 9.21519 24.5025C9.1996 24.6813 9.22612 24.8641 9.26597 25.0486M9.27675 25.0435C9.27604 25.0584 9.27537 25.0734 9.27472 25.0883M9.27675 25.0435C9.27315 25.0452 9.26956 25.0469 9.26597 25.0486M9.27472 25.0883C9.26791 25.2454 9.26424 25.4028 9.2648 25.5606M9.27472 25.0883C9.3108 25.2485 9.35535 25.4098 9.38963 25.5708M9.27472 25.0883C9.27174 25.0751 9.26882 25.0618 9.26597 25.0486M9.2648 25.5606C9.26512 25.6484 9.26674 25.7363 9.26987 25.8244C9.27518 25.9739 9.44357 26.3828 9.44357 26.009C9.44357 25.8639 9.42086 25.7175 9.38963 25.5708M9.2648 25.5606C9.30638 25.5642 9.348 25.5676 9.38963 25.5708M9.2648 25.5606C9.144 25.5501 9.02344 25.5376 8.90319 25.5225C8.52532 25.475 8.67837 25.3337 8.95143 25.2004C9.05599 25.1493 9.16083 25.0987 9.26597 25.0486M11.1781 23.3195C11.1843 23.3363 11.1905 23.3531 11.1966 23.3699M11.1781 23.3195C10.7405 23.6311 10.3033 23.95 9.90675 24.3079C9.88777 24.325 9.85803 24.3922 9.88102 24.3817C9.97478 24.3388 10.1675 24.2034 10.2348 24.1535C10.5665 23.9077 10.8806 23.6374 11.1966 23.3699M11.1781 23.3195C11.3883 23.1698 11.5986 23.0218 11.8045 22.8719M11.1966 23.3699C11.2838 23.6074 11.3695 23.8457 11.4547 24.0842M11.1966 23.3699C11.3968 23.2004 11.5978 23.0321 11.8045 22.8719M11.4547 24.0842C11.6362 24.5923 11.8151 25.1014 11.9997 25.6072M11.4547 24.0842C11.2698 24.1597 11.0855 24.2363 10.9018 24.3141M11.4547 24.0842C13.2552 23.3494 15.107 22.724 16.9446 22.1606C17.1833 22.0873 17.4226 22.0156 17.6626 21.9464M11.9997 25.6072C12.0078 25.6294 12.016 25.6517 12.0241 25.674M11.9997 25.6072C11.9185 25.5629 11.8393 25.5151 11.7632 25.4637M11.9997 25.6072C12.0487 25.6339 12.0984 25.6593 12.1487 25.6835M12.0241 25.674C12.0853 25.8409 12.1471 26.0074 12.2098 26.1734C12.2786 26.3553 12.3165 26.4436 12.325 26.4629M12.0241 25.674C12.0656 25.6771 12.1072 25.6802 12.1487 25.6835M12.0241 25.674C12.0067 25.6727 11.9892 25.6714 11.9718 25.6701C11.9404 25.6678 11.909 25.6656 11.8775 25.6635M12.325 26.4629C12.3274 26.4684 12.3274 26.4682 12.325 26.4629ZM12.325 26.4629C12.3134 26.4373 12.2469 26.2948 12.1294 26.0995C12.0463 25.9616 11.9631 25.8142 11.8775 25.6635M11.8775 25.6635C11.8399 25.5973 11.8019 25.5306 11.7632 25.4637M11.7632 25.4637C11.5177 25.0394 11.2464 24.6113 10.9018 24.3141M11.7632 25.4637C11.4863 25.2768 11.2489 25.042 11.0937 24.7541C11.0584 24.6887 10.9076 24.4783 10.8282 24.3453M10.9018 24.3141C10.8834 24.2982 10.8648 24.2827 10.846 24.2676C10.7499 24.1905 10.7694 24.2466 10.8282 24.3453M10.9018 24.3141C10.8773 24.3245 10.8527 24.3349 10.8282 24.3453M12.1487 25.6835C12.4803 25.8428 12.8365 25.9478 13.1619 26.0056C13.2351 26.0186 13.3093 26.0277 13.3842 26.0335M12.1487 25.6835C12.618 25.7199 13.0886 25.7648 13.5574 25.8252M13.3842 26.0335C13.7113 26.0585 14.0525 26.0184 14.3837 25.9498M13.3842 26.0335C13.4386 25.9629 13.4976 25.8928 13.5574 25.8252M13.3842 26.0335C13.2256 26.2393 13.1059 26.4491 13.1169 26.6095C13.1356 26.8828 14.136 26.4302 14.2041 26.3881C14.3749 26.2823 14.5485 26.1553 14.7136 26.0109M14.3837 25.9498C14.5672 25.9118 14.7477 25.8649 14.921 25.8155M14.3837 25.9498C14.4939 25.969 14.6039 25.9894 14.7136 26.0109M14.3837 25.9498C14.1094 25.9019 13.8337 25.8609 13.5574 25.8252M14.921 25.8155C14.9688 25.8019 15.0162 25.788 15.0629 25.7741C15.2973 25.7042 15.5284 25.6185 15.7603 25.537M14.921 25.8155C14.854 25.8836 14.7846 25.9489 14.7136 26.0109M14.921 25.8155C15.2492 25.4816 15.5188 25.0785 15.6258 24.6434C15.668 24.4717 15.6786 24.3154 15.6634 24.1767M15.7603 25.537C15.9353 25.4755 16.1107 25.4163 16.2884 25.3681C16.3589 25.349 16.4304 25.334 16.5027 25.3224M15.7603 25.537C15.768 25.5254 15.7757 25.5139 15.7834 25.5023C16.0531 25.0983 16.3537 24.6724 16.6853 24.263M15.7603 25.537C15.6257 25.7397 15.4952 25.9459 15.3713 26.156M16.5027 25.3224C16.4417 25.4018 16.3793 25.4775 16.3206 25.5493C16.2219 25.6699 16.1199 25.7866 16.014 25.8991M16.5027 25.3224C16.6799 25.0917 16.8453 24.8298 16.8738 24.5427C16.8823 24.4567 16.8643 24.3866 16.8281 24.3297M16.014 25.8991C15.9896 25.9031 15.9652 25.9073 15.941 25.9117C15.6721 25.9604 15.7096 25.9834 15.9235 25.9932M16.014 25.8991C15.9842 25.9308 15.954 25.9622 15.9235 25.9932M15.9235 25.9932C16.4664 26.0179 18.1457 25.9577 18.8359 26.019C18.9059 26.0252 19.3626 26.0505 19.0739 26.0928C18.4304 26.1872 17.7908 26.2905 17.1569 26.4418C16.7107 26.5482 16.2955 26.623 15.8381 26.623C15.8341 26.623 15.5366 26.6295 15.5936 26.576C15.7953 26.3866 16.403 26.4372 15.7319 26.2505C15.7119 26.245 15.6918 26.2394 15.6717 26.234M15.9235 25.9932C15.842 26.076 15.7582 26.1563 15.6717 26.234M15.6717 26.234C15.5719 26.2067 15.4717 26.1808 15.3713 26.156M15.6717 26.234C15.6313 26.2703 15.5902 26.306 15.5486 26.3411C15.4806 26.3984 15.2034 26.6901 15.0983 26.6901C15.0924 26.6901 15.272 26.3277 15.272 26.3277C15.3045 26.2702 15.3377 26.2129 15.3713 26.156M15.3713 26.156C15.1533 26.1023 14.934 26.0542 14.7136 26.0109M13.5574 25.8252C13.7399 25.6192 13.9305 25.4375 14.0239 25.3413C14.4784 24.8729 15.0302 24.3683 15.6634 24.1767M17.6626 21.9464C17.7046 21.7167 17.7571 21.4892 17.8177 21.2637M17.6626 21.9464C17.653 21.9987 17.644 22.0511 17.6355 22.1036M17.8177 21.2637C17.7023 21.2809 17.5872 21.2998 17.4723 21.3204M17.8177 21.2637C17.8266 21.2305 17.8357 21.1974 17.845 21.1643M17.4723 21.3204C16.8075 21.4397 16.1519 21.6162 15.5164 21.8485C15.1852 21.9696 14.1924 22.2993 14.5418 22.2646C15.5251 22.1669 16.555 21.7052 17.4723 21.3204ZM17.4723 21.3204C17.5197 21.3005 17.5668 21.2808 17.6136 21.2614C17.6909 21.2293 17.768 21.1969 17.845 21.1643M17.845 21.1643C17.8997 20.9689 17.9604 20.7749 18.0255 20.5821M18.0255 20.5821C16.3462 21.1421 14.7701 21.9601 13.1523 22.6806C12.9227 22.7828 12.6888 22.8887 12.4478 22.9591C12.2785 23.0085 12.7455 22.7621 12.9046 22.684C14.6208 21.8408 16.3778 21.0841 18.122 20.3056M18.0255 20.5821C18.0567 20.4896 18.0889 20.3975 18.122 20.3056M18.122 20.3056C18.2174 20.263 18.3128 20.2204 18.4081 20.1776C18.4999 20.1365 19.7454 19.6694 19.0997 19.765C18.8156 19.807 18.5341 19.8636 18.255 19.9318M18.122 20.3056C18.1241 20.2998 18.1262 20.2941 18.1283 20.2884C18.1711 20.1699 18.213 20.0509 18.255 19.9318M18.255 19.9318C17.2 20.1895 16.1787 20.6128 15.1819 21.0399C14.9511 21.1388 14.7241 21.2408 14.4991 21.3466M18.255 19.9318C18.3227 19.7397 18.3905 19.5475 18.4625 19.3573M14.4991 21.3466C14.2251 21.4754 13.9541 21.6098 13.683 21.7512C13.2094 21.9982 13.7544 21.7239 14.4991 21.3466ZM14.4991 21.3466C15.1445 21.0196 15.9401 20.6152 16.3527 20.4058C17.0496 20.0521 17.7609 19.7135 18.4625 19.3573M18.4625 19.3573C18.9548 19.1074 19.4423 18.8489 19.9167 18.5705C20.2644 18.3665 19.8459 18.4254 19.6915 18.4497C19.3668 18.5009 19.0518 18.5835 18.7442 18.6886M18.4625 19.3573C18.5483 19.1304 18.64 18.9063 18.7442 18.6886M18.7442 18.6886C18.0654 18.9203 17.4225 19.2616 16.7902 19.6173C15.6923 20.2349 14.6043 20.8942 13.5526 21.6068M18.7442 18.6886C18.8171 18.5361 18.8963 18.3867 18.9839 18.2417C19.5002 17.3868 20.2952 17.5062 21.1679 17.564C21.5818 17.5914 22.0408 17.7353 22.4545 17.6814C22.5726 17.666 22.3021 17.5712 22.284 17.564C21.7495 17.3485 21.0201 17.3986 20.457 17.4566C19.5909 17.5458 18.7379 17.6847 17.8645 17.6847C16.6275 17.6847 15.3801 17.7243 14.1462 17.8189C13.1168 17.8979 12.3568 18.2431 11.6437 19.0167C11.3547 19.3302 10.9298 19.7176 10.8942 20.181C10.88 20.3665 10.9261 20.3424 11.0197 20.2213C11.1539 20.0475 12.629 18.7839 12.7341 19.1677C12.7721 19.3064 12.3561 19.7388 12.2966 19.8186C11.8544 20.4132 11.3452 20.9986 10.9553 21.6304C10.8998 21.7205 10.7409 22.1834 10.9746 21.9458C11.4891 21.4229 11.9907 20.8879 12.5154 20.3756C13.4519 19.4611 14.4707 18.3847 15.7512 18.0303C16.2434 17.8941 15.7061 18.347 15.5904 18.4631C14.8321 19.2243 14.0261 19.9165 13.2423 20.6474C12.8659 20.9983 12.961 21.0276 13.2906 20.7245C14.7781 19.3564 16.5746 17.9263 18.6493 17.9263C18.781 17.9263 18.5361 18.0202 18.511 18.037C18.1433 18.2836 17.7892 18.5554 17.4303 18.8154C16.1403 19.7498 14.8449 20.676 13.5526 21.6068M13.5526 21.6068C12.9567 22.0107 12.3723 22.4317 11.8045 22.8719M13.5526 21.6068C12.969 22.0272 12.3861 22.4485 11.8045 22.8719M17.6355 22.1036C17.5905 22.3829 17.5615 22.6656 17.5525 22.9524C17.5489 23.0663 17.5411 23.1964 17.5496 23.3231M17.6355 22.1036C17.7619 22.0458 17.8943 22.0049 18.0318 21.9861C18.6649 21.8995 18.6318 22.2427 18.3861 22.6614M17.6355 22.1036C17.2382 22.2853 16.9002 22.6337 16.6486 22.9859C16.5506 23.1233 16.2126 23.5333 16.5007 23.6033C16.6191 23.632 16.7411 23.6509 16.8654 23.6612M17.5496 23.3231C17.5569 23.4323 17.5764 23.5388 17.6212 23.6301M17.5496 23.3231C17.8136 23.0756 18.0924 22.8508 18.3861 22.6614M17.5496 23.3231C17.4666 23.4009 17.3851 23.4809 17.3051 23.5627M17.6212 23.6301C17.6217 23.6312 17.6222 23.6322 17.6227 23.6332M17.6212 23.6301C17.62 23.6314 17.6187 23.6327 17.6175 23.634M17.6212 23.6301C17.8574 23.3796 18.1897 22.9964 18.3861 22.6614M17.6227 23.6332C17.658 23.7039 17.7086 23.7653 17.7809 23.8113C17.8166 23.8341 18.0333 23.9748 18.1039 23.9523M17.6227 23.6332C17.621 23.6335 17.6193 23.6337 17.6175 23.634M18.1039 23.9523C18.1149 23.9487 18.1224 23.9413 18.125 23.9287C18.1416 23.8512 18.1283 23.6111 18.1283 23.6905C18.1283 23.7808 18.1193 23.8675 18.1039 23.9523ZM18.1039 23.9523C18.0732 24.1212 18.0169 24.2825 17.9546 24.4488C17.8801 24.6475 17.7631 24.8679 17.7262 25.0796C17.6952 25.2576 17.6458 24.7866 17.6393 24.7407C17.6241 24.6318 17.5668 24.155 17.4393 23.8163M17.4393 23.8163C17.418 23.7598 17.3948 23.7071 17.3695 23.6607M17.4393 23.8163C17.4195 23.8356 17.4024 23.852 17.3884 23.865C17.3539 23.8971 17.0252 24.2111 16.8281 24.3297M17.4393 23.8163C17.486 23.7706 17.5474 23.7082 17.6175 23.634M17.3695 23.6607C17.3494 23.6237 17.3279 23.5907 17.3051 23.5627M17.3695 23.6607C17.3137 23.6649 17.258 23.6679 17.2025 23.6695M17.3695 23.6607C17.4522 23.6544 17.535 23.6454 17.6175 23.634M17.3051 23.5627C17.2062 23.4418 17.0814 23.4165 16.9253 23.5832C16.9038 23.6061 16.8839 23.6323 16.8654 23.6612M17.3051 23.5627C17.2706 23.598 17.2364 23.6336 17.2025 23.6695M16.8654 23.6612C16.7709 23.8085 16.7145 24.0236 16.6915 24.2056M16.8654 23.6612C16.9763 23.6704 17.089 23.6728 17.2025 23.6695M16.6915 24.2056C16.6891 24.2251 16.687 24.2443 16.6853 24.263M16.6915 24.2056C16.7008 24.2108 16.7098 24.2163 16.7186 24.2221M16.6915 24.2056C16.5126 24.104 16.2453 24.0903 16.0857 24.0999C15.9413 24.1085 15.8004 24.1353 15.6634 24.1767M16.6853 24.263C16.6833 24.2855 16.6818 24.3072 16.6808 24.328C16.6777 24.3968 16.7396 24.383 16.8281 24.3297M16.6853 24.263C16.6964 24.2493 16.7074 24.2357 16.7186 24.2221M16.8281 24.3297C16.8008 24.2867 16.7631 24.2512 16.7186 24.2221M17.2025 23.6695C17.0345 23.8473 16.8732 24.0328 16.7186 24.2221M15.6634 24.1767C15.5843 23.4515 14.8018 23.2111 14.159 23.8046C14.1024 23.8569 14.0472 23.9115 13.9938 23.968M13.9938 23.968C13.7632 24.2122 13.5641 24.4935 13.4057 24.7953M13.9938 23.968C14.0278 23.9862 14.0614 24.0078 14.0947 24.0328C14.6283 24.4335 13.7404 25.3322 13.3935 25.4956C13.0746 25.6458 13.1383 25.421 13.2198 25.2071C13.2732 25.0668 13.3355 24.929 13.4057 24.7953M13.9938 23.968C13.5024 23.7039 12.9543 24.1275 12.6368 24.5931M13.4057 24.7953C13.3585 24.8308 13.3101 24.8663 13.2611 24.9011M13.4057 24.7953C13.7018 24.5724 13.9516 24.3478 14.0175 24.2676M12.6368 24.5931C12.5465 24.7255 12.4749 24.8613 12.4285 24.9856C12.367 25.1507 12.4439 25.249 12.5714 25.2946M12.6368 24.5931C12.848 24.6318 13.1673 24.7371 13.2611 24.9011M12.6368 24.5931C12.5762 24.5819 12.5246 24.5763 12.4896 24.5763C12.1503 24.5763 12.0656 24.9168 12.1776 25.2205C12.2284 25.3581 12.3779 25.3635 12.5714 25.2946M12.5714 25.2946C12.7648 25.3637 13.0747 25.3115 13.1941 25.1869C13.2986 25.0779 13.3074 24.9823 13.2611 24.9011M12.5714 25.2946C12.7739 25.2226 13.0247 25.0692 13.2611 24.9011" stroke="white" stroke-width="1.52119" stroke-linecap="round"/>
<path d="M53.8124 28.314C54.9917 28.314 56.2057 28.198 57.2863 27.6496C57.6727 27.4536 58.0316 27.2143 58.4314 27.0457C58.6672 26.9463 58.8835 26.822 59.0683 26.6364C59.5165 26.1861 59.951 25.7156 60.3871 25.2608C60.8733 24.7536 61.2086 24.0506 61.5257 23.4221C61.8679 22.7439 62.0339 21.897 62.0339 21.1272C62.0339 20.1494 61.7491 19.2214 61.0497 18.5302C60.5522 18.0387 59.6557 18.1075 59.02 18.1075C58.2024 18.1075 57.3092 18.0736 56.5208 18.2887C56.019 18.4256 55.4844 18.5317 55.0862 18.906C54.7392 19.2321 54.5385 19.6507 54.3914 20.1072C54.1059 20.9933 53.9124 21.9282 53.7803 22.8517C53.594 24.153 53.353 25.8752 54.5072 26.7907C55.0163 27.1946 55.7273 27.2945 56.2474 26.8779C57.0631 26.2246 57.7584 25.2996 58.3864 24.4244M58.3864 24.4244C58.4088 24.3931 58.4312 24.3619 58.4535 24.3308M58.3864 24.4244V24.6971C58.3864 25.1203 58.4403 25.0829 58.4443 24.6971C58.4455 24.5751 58.4486 24.453 58.4535 24.3308M58.3864 24.4244V21.0936C58.3864 20.8589 58.2722 20.2653 58.3992 20.0401C58.4995 19.8623 58.9498 19.9095 59.1741 19.9162M58.4535 24.3308C58.5252 24.2304 58.5961 24.1309 58.6662 24.0328C59.1906 23.2982 59.5926 22.4854 59.8016 21.5935C59.8102 21.5569 59.8945 21.2096 59.8917 21.2815C59.8712 21.815 59.7053 22.3451 59.5701 22.8551C59.404 23.4814 59.1747 24.174 59.0539 24.8569M58.4535 24.3308C58.508 22.9525 58.7822 21.5635 59.1037 20.2347C59.1165 20.1814 59.1409 20.0494 59.1741 19.9162M59.0539 24.8569C59.0033 25.1427 58.9718 25.4268 58.9718 25.7036C58.9718 25.8875 59.7894 25.2069 59.8563 25.1433C59.9075 25.0947 60.58 24.4937 60.58 24.5461C60.58 24.8151 60.0157 25.2333 59.8338 25.3815C59.5421 25.6193 59.2341 25.8211 58.8946 25.972C58.6433 26.0838 58.4035 26.1719 58.1419 26.2472C57.6971 26.3752 58.0018 26.0213 58.1612 25.8311C58.4435 25.4943 58.7455 25.1731 59.0539 24.8569ZM59.0539 24.8569C59.8518 24.0388 60.6926 23.2537 61.3456 22.3149C61.6638 21.8574 61.9478 21.3441 61.9149 20.7614C61.9065 20.612 61.6893 19.3758 61.5965 19.3758C61.3391 19.3758 61.0729 19.5901 60.9049 19.7784C60.5992 20.1209 60.5385 20.5368 60.5286 20.9672M60.5286 20.9672C60.5247 21.1358 60.5286 21.3066 60.5286 21.4761M60.5286 20.9672V21.4761M60.5286 20.9672V19.9327C60.5286 20.5664 60.4576 21.1761 60.416 21.8049C60.3871 22.2427 60.2417 21.7852 60.1458 21.5667C59.901 21.0088 59.7122 20.4582 59.5163 19.8887M60.5286 21.4761V22.2813M59.5163 19.8887C59.4968 19.832 59.4772 19.7751 59.4575 19.718C59.4412 19.6707 59.4251 19.6354 59.4095 19.6104M59.5163 19.8887C59.3911 19.9073 59.2827 19.914 59.2516 19.9159C59.2309 19.9172 59.2046 19.9171 59.1741 19.9162M59.5163 19.8887C59.7335 19.8564 60.0011 19.7884 60.0011 19.6475C60.0011 19.6229 59.7381 19.6132 59.4095 19.6104M59.4095 19.6104C59.3642 19.538 59.3218 19.5514 59.2838 19.6096M59.4095 19.6104C59.3685 19.61 59.3264 19.6098 59.2838 19.6096M59.2838 19.6096C59.2412 19.6747 59.204 19.7959 59.1741 19.9162M59.2838 19.6096C58.8153 19.6079 58.2698 19.6173 58.1548 19.6173M54.5567 1.05967C52.0579 1.05967 49.5101 0.897669 47.0204 1.10753C41.6065 1.56387 38.334 6.95843 36.6852 11.8284C34.854 17.2369 35.5454 22.4493 40.4705 25.5764C45.3039 28.6452 53.3584 30.4404 58.6174 27.5148C60.9883 26.1957 63.4475 23.1461 62.9304 20.1083C62.3284 16.5717 57.1611 16.1808 54.5452 16.0521C50.5238 15.8542 46.5791 17.3802 44.1183 20.8262C42.8703 22.5738 42.5763 24.3705 42.3747 26.4738M59.7759 18.7114H58.2711M58.2711 18.7114H57.1223C56.522 18.7114 55.638 18.5766 55.0991 18.9329C54.7225 19.1817 54.6024 19.6468 54.5683 20.1249M58.2711 18.7114C58.0794 18.9265 57.9001 19.1064 57.8331 19.1979C57.7711 19.2826 57.6801 19.4142 57.5679 19.5824M58.2711 18.7114C58.6335 18.3049 59.0404 17.7725 58.8174 17.4734C58.6449 17.242 58.121 17.3195 57.8782 17.2754C57.4081 17.1901 56.9387 17.1383 56.4629 17.0674C55.8759 16.9799 55.3287 16.77 54.7517 16.6346C54.2012 16.5054 53.6325 16.5373 53.0726 16.5373C52.5995 16.5373 52.1133 16.5041 51.6413 16.5406C51.0715 16.5846 50.5196 16.912 49.9912 17.111C49.4563 17.3125 48.9653 17.5811 48.4151 17.7451C47.8409 17.9162 47.3059 18.0807 46.8325 18.4799C45.949 19.2251 45.2321 20.272 44.5616 21.2211C44.4435 21.3884 44.4059 21.5997 44.3622 21.8049C44.3305 21.9539 44.298 22.108 44.2631 22.2639M54.5683 20.1249C54.5634 20.1937 54.5603 20.2628 54.5585 20.3315M54.5683 20.1249C54.6101 20.1196 54.6519 20.1148 54.6938 20.1105C54.7687 20.103 54.9707 20.0703 54.9189 20.1273C54.8392 20.2151 54.6985 20.2789 54.5585 20.3315M54.5683 20.1249C53.9915 20.1983 53.4211 20.373 52.87 20.5534C52.8411 20.5629 52.8122 20.5724 52.7833 20.5821M54.5585 20.3315C54.5511 20.6087 54.5644 20.8804 54.5651 21.107C54.5652 21.1227 54.5652 21.1383 54.5653 21.154M54.5585 20.3315C54.4469 20.3735 54.3358 20.4084 54.2563 20.4427C53.7044 20.6811 53.1563 20.9296 52.6028 21.1643M54.5653 21.154C54.5659 21.2462 54.5671 21.3382 54.5691 21.4298M54.5653 21.154C54.7417 21.1662 54.9174 21.1866 55.092 21.2175M54.5653 21.154C54.2594 21.1329 53.9517 21.1367 53.6452 21.154C53.2876 21.1742 52.9305 21.2108 52.5755 21.2637M54.5691 21.4298C54.5741 21.6595 54.5842 21.8871 54.6016 22.1128M54.5691 21.4298C53.8445 21.56 53.1296 21.7419 52.4204 21.9464M54.5691 21.4298C54.7348 21.4 54.9011 21.3729 55.068 21.3488M54.6016 22.1128C54.6188 22.337 54.6431 22.5592 54.6767 22.7795M54.6016 22.1128C54.7486 22.0978 54.8906 22.0975 54.9797 22.1316M54.6016 22.1128C54.3512 22.1384 54.0864 22.2067 54.044 22.2209C53.7299 22.3264 53.4299 22.4771 53.144 22.6614M54.6767 22.7795C54.7022 22.9473 54.7331 23.114 54.7702 23.2796M54.6767 22.7795C54.3055 23.0718 53.7859 23.2564 53.4232 23.3785C53.1022 23.4866 52.7437 23.5827 52.3805 23.6332M54.6767 22.7795C54.7918 22.6889 54.8927 22.5878 54.9701 22.4751M54.7702 23.2796C54.8377 23.5808 54.9259 23.8784 55.0404 24.1727M54.7702 23.2796C54.8331 23.0561 54.9014 22.8361 54.9725 22.6214M54.7702 23.2796C54.5844 23.9397 54.4456 24.6304 54.4201 25.3063M55.0404 24.1727C55.0728 24.256 55.1073 24.3391 55.1441 24.422C55.3434 24.871 55.6346 25.5239 56.064 25.7976C56.4851 26.066 57.7271 22.5225 57.8267 22.1606C57.8949 21.9127 58.3162 20.1977 57.7046 20.6178M55.0404 24.1727C54.8438 24.6993 54.7529 25.1301 54.8396 25.3724M55.0404 24.1727C55.2096 23.7195 55.4571 23.1953 55.7371 22.6593M57.7046 20.6178C57.6556 20.6514 57.6001 20.6987 57.5372 20.7614C56.723 21.5746 55.8574 23.4064 56.2441 24.6166C56.2902 24.7605 56.3134 24.8697 56.4275 24.6971C56.9384 23.9243 57.2233 22.8778 57.4471 21.9827C57.5491 21.5749 57.665 21.0917 57.7046 20.6178ZM57.7046 20.6178C57.7304 20.3082 57.7237 20.0026 57.6594 19.7247C57.6413 19.6462 57.6089 19.602 57.5679 19.5824M57.5679 19.5824C57.4139 19.509 57.139 19.7836 57.0451 19.8891C56.7869 20.1791 56.5651 20.4886 56.3795 20.8145M57.5679 19.5824C57.2644 20.0375 56.8061 20.7607 56.3496 21.55M56.3795 20.8145C56.0543 21.3855 55.8403 22.0064 55.7371 22.6593M56.3795 20.8145C56.3916 21.0517 56.3762 21.3107 56.3496 21.55M56.3795 20.8145C56.3565 20.3627 56.2334 19.9894 55.8968 19.9797C55.453 19.9668 55.2151 20.5872 55.092 21.2175M55.7371 22.6593C55.6891 22.9632 55.6652 23.274 55.6652 23.5899C55.6652 23.6126 55.662 23.8672 55.7263 23.7442C55.9483 23.3197 56.0857 22.825 56.2088 22.3619C56.2427 22.2341 56.3091 21.9148 56.3496 21.55M55.7371 22.6593C55.9308 22.2887 56.14 21.9124 56.3496 21.55M55.092 21.2175C55.0834 21.2613 55.0754 21.3052 55.068 21.3488M55.092 21.2175C55.1223 21.2229 55.1525 21.2285 55.1827 21.2345C55.3099 21.2598 55.5113 21.2902 55.2663 21.3218C55.2001 21.3303 55.134 21.3393 55.068 21.3488M55.068 21.3488C55.0187 21.6367 54.9922 21.9176 54.9797 22.1316M54.9797 22.1316C54.9738 22.2318 54.971 22.3173 54.9704 22.382C54.9701 22.4129 54.97 22.444 54.9701 22.4751M54.9797 22.1316C55.0651 22.1643 55.1018 22.2286 55.0476 22.3417C55.0255 22.3879 54.9995 22.4323 54.9701 22.4751M54.9701 22.4751C54.9703 22.5245 54.971 22.5737 54.9725 22.6214M54.9725 22.6214C54.985 23.0218 55.0492 23.3124 55.2631 22.6571C55.3969 22.2471 55.485 21.8255 55.5365 21.3956C55.6031 20.8398 55.2858 21.7412 55.247 21.8452C55.1545 22.0934 55.0613 22.3533 54.9725 22.6214ZM54.4201 25.3063C54.4168 25.393 54.4154 25.4795 54.416 25.5656M54.4201 25.3063C53.7854 25.2148 53.0897 25.2943 52.4551 25.2943C52.0643 25.2943 51.6517 25.2595 51.2605 25.3224M54.4201 25.3063C54.458 25.3117 54.4956 25.3178 54.5329 25.3245C54.5922 25.3352 54.7266 25.3514 54.8396 25.3724M54.416 25.5656C54.4185 25.9217 54.4552 26.2719 54.5362 26.6095C54.6491 27.0807 54.802 26.831 55.0862 26.6498C55.3089 26.5078 55.6598 26.1524 55.7681 25.8982C55.8657 25.6692 55.1348 25.5997 55.0315 25.5661C54.9816 25.5498 54.9407 25.5238 54.9081 25.4887M54.416 25.5656C54.543 25.5476 54.6699 25.5287 54.7967 25.509C54.8411 25.5021 54.878 25.4954 54.9081 25.4887M54.416 25.5656C53.786 25.6551 53.153 25.7247 52.5194 25.7774C51.9523 25.8247 51.3361 25.8074 50.7718 25.8991M54.9081 25.4887C54.8787 25.4571 54.856 25.4181 54.8396 25.3724M54.9081 25.4887C55.12 25.4422 55.0019 25.4025 54.8396 25.3724M44.2631 22.2639C44.2601 22.2776 44.257 22.2913 44.2539 22.305M44.2631 22.2639C44.2653 22.4492 44.2683 22.653 44.2721 22.6974C44.288 22.879 44.3018 23.0585 44.319 23.2358M44.2631 22.2639C44.2606 22.041 44.2593 21.845 44.2593 21.9861C44.2593 22.0926 44.2574 22.1989 44.2539 22.305M44.2539 22.305C44.1533 22.751 44.0323 23.2093 43.854 23.6033C43.6645 24.0219 43.3001 24.5809 43.275 25.0527C43.2478 25.564 43.0053 26.2183 43.6095 26.4284C44.0071 26.5666 44.5099 26.3697 44.9219 26.472C45.1543 26.5297 45.385 26.5909 45.6152 26.6511M44.2539 22.305C44.2388 22.77 44.1937 23.232 44.1473 23.694M45.6152 26.6511C46.3942 26.8546 47.1671 27.0457 47.9776 27.0457H50.2935C51.0402 27.0457 51.7596 27.2873 52.5065 27.2873C52.7347 27.2873 54.9197 27.1476 54.9672 27.3208C55.0479 27.6155 54.0345 27.8906 53.8703 27.9382C53.293 28.1055 52.5023 28.1518 51.9018 28.059C51.1022 27.9354 50.2935 27.9516 49.483 27.9516H47.5948C47.1594 27.9516 46.7034 28.0096 46.3404 27.7067C46.0103 27.4312 45.757 27.0671 45.6152 26.6511ZM45.6152 26.6511C45.6067 26.6262 45.5986 26.6012 45.5909 26.576C45.487 26.2345 45.3324 25.9219 45.1656 25.6153M45.1656 25.6153C45.0073 25.3242 44.8381 25.0385 44.6911 24.7384M45.1656 25.6153C45.6564 25.6267 46.1477 25.6314 46.6353 25.6635M45.1656 25.6153C44.8255 25.6075 44.4856 25.5964 44.1474 25.5708M44.6911 24.7384C44.6832 24.7225 44.6755 24.7064 44.6678 24.6904C44.4435 24.2224 44.3677 23.7376 44.319 23.2358M44.6911 24.7384C44.4711 24.8382 44.2522 24.9398 44.0346 25.0435M44.6911 24.7384C44.9875 24.604 45.286 24.473 45.586 24.3453M44.319 23.2358C44.256 23.3869 44.1977 23.5397 44.1473 23.694M44.319 23.2358C44.4751 22.8617 44.66 22.4988 44.8254 22.1538C44.9245 21.9471 45.0521 21.7401 45.1277 21.5231C45.1976 21.3226 45.4157 21.9756 45.4269 22.0029C45.6054 22.4373 45.7732 22.8771 45.936 23.3195M44.1473 23.694C44.1022 24.143 44.0558 24.5919 44.0346 25.0435M44.1473 23.694C44.0603 23.9601 43.9967 24.2304 43.973 24.5025C43.9574 24.6813 43.9839 24.8641 44.0238 25.0486M44.0346 25.0435C44.0339 25.0584 44.0332 25.0734 44.0325 25.0883M44.0346 25.0435C44.031 25.0452 44.0274 25.0469 44.0238 25.0486M44.0325 25.0883C44.0257 25.2454 44.0221 25.4028 44.0226 25.5606M44.0325 25.0883C44.0686 25.2485 44.1132 25.4098 44.1474 25.5708M44.0325 25.0883C44.0296 25.0751 44.0266 25.0618 44.0238 25.0486M44.0226 25.5606C44.0229 25.6484 44.0246 25.7363 44.0277 25.8244C44.033 25.9739 44.2014 26.3828 44.2014 26.009C44.2014 25.8639 44.1787 25.7175 44.1474 25.5708M44.0226 25.5606C44.0642 25.5642 44.1058 25.5676 44.1474 25.5708M44.0226 25.5606C43.9018 25.5501 43.7813 25.5376 43.661 25.5225C43.2831 25.475 43.4362 25.3337 43.7092 25.2004C43.8138 25.1493 43.9186 25.0987 44.0238 25.0486M45.936 23.3195C45.9421 23.3363 45.9483 23.3531 45.9545 23.3699M45.936 23.3195C45.4984 23.6311 45.0611 23.95 44.6646 24.3079C44.6456 24.325 44.6158 24.3922 44.6388 24.3817C44.7326 24.3388 44.9253 24.2034 44.9927 24.1535C45.3243 23.9077 45.6384 23.6374 45.9545 23.3699M45.936 23.3195C46.1461 23.1698 46.3564 23.0218 46.5623 22.8719M45.9545 23.3699C46.0416 23.6074 46.1274 23.8457 46.2125 24.0842M45.9545 23.3699C46.1546 23.2004 46.3556 23.0321 46.5623 22.8719M46.2125 24.0842C46.394 24.5923 46.5729 25.1014 46.7575 25.6072M46.2125 24.0842C46.0277 24.1597 45.8433 24.2363 45.6596 24.3141M46.2125 24.0842C48.013 23.3494 49.8649 22.724 51.7024 22.1606C51.9412 22.0873 52.1804 22.0156 52.4204 21.9464M46.7575 25.6072C46.7656 25.6294 46.7738 25.6517 46.7819 25.674M46.7575 25.6072C46.6763 25.5629 46.5971 25.5151 46.521 25.4637M46.7575 25.6072C46.8065 25.6339 46.8562 25.6593 46.9065 25.6835M46.7819 25.674C46.8431 25.8409 46.9049 26.0074 46.9676 26.1734C47.0364 26.3553 47.0743 26.4436 47.0828 26.4629M46.7819 25.674C46.8235 25.6771 46.865 25.6802 46.9065 25.6835M46.7819 25.674C46.7645 25.6727 46.747 25.6714 46.7296 25.6701C46.6982 25.6678 46.6668 25.6656 46.6353 25.6635M47.0828 26.4629C47.0852 26.4684 47.0852 26.4682 47.0828 26.4629ZM47.0828 26.4629C47.0712 26.4373 47.0047 26.2948 46.8872 26.0995C46.8041 25.9616 46.7209 25.8142 46.6353 25.6635M46.6353 25.6635C46.5977 25.5973 46.5597 25.5306 46.521 25.4637M46.521 25.4637C46.2755 25.0394 46.0042 24.6113 45.6596 24.3141M46.521 25.4637C46.2441 25.2768 46.0067 25.042 45.8515 24.7541C45.8162 24.6887 45.6654 24.4783 45.586 24.3453M45.6596 24.3141C45.6412 24.2982 45.6226 24.2827 45.6038 24.2676C45.5077 24.1905 45.5272 24.2466 45.586 24.3453M45.6596 24.3141C45.6351 24.3245 45.6106 24.3349 45.586 24.3453M46.9065 25.6835C47.2381 25.8428 47.5943 25.9478 47.9197 26.0056C47.9929 26.0186 48.0671 26.0277 48.142 26.0335M46.9065 25.6835C47.3758 25.7199 47.8464 25.7648 48.3152 25.8252M48.142 26.0335C48.4691 26.0585 48.8103 26.0184 49.1416 25.9498M48.142 26.0335C48.1964 25.9629 48.2554 25.8928 48.3152 25.8252M48.142 26.0335C47.9834 26.2393 47.8637 26.4491 47.8747 26.6095C47.8934 26.8828 48.8938 26.4302 48.9619 26.3881C49.1328 26.2823 49.3063 26.1553 49.4715 26.0109M49.1416 25.9498C49.325 25.9118 49.5055 25.8649 49.6788 25.8155M49.1416 25.9498C49.2517 25.969 49.3617 25.9894 49.4715 26.0109M49.1416 25.9498C48.8672 25.9019 48.5915 25.8609 48.3152 25.8252M49.6788 25.8155C49.7267 25.8019 49.774 25.788 49.8207 25.7741C50.0551 25.7042 50.2862 25.6185 50.5181 25.537M49.6788 25.8155C49.6118 25.8836 49.5424 25.9489 49.4715 26.0109M49.6788 25.8155C50.007 25.4816 50.2766 25.0785 50.3836 24.6434C50.4258 24.4717 50.4364 24.3154 50.4212 24.1767M50.5181 25.537C50.6931 25.4755 50.8685 25.4163 51.0462 25.3681C51.1167 25.349 51.1883 25.334 51.2605 25.3224M50.5181 25.537C50.5258 25.5254 50.5335 25.5139 50.5412 25.5023C50.8109 25.0983 51.1115 24.6724 51.4431 24.263M50.5181 25.537C50.3835 25.7397 50.253 25.9459 50.1291 26.156M51.2605 25.3224C51.1995 25.4018 51.1371 25.4775 51.0784 25.5493C50.9797 25.6699 50.8778 25.7866 50.7718 25.8991M51.2605 25.3224C51.4378 25.0917 51.6031 24.8298 51.6316 24.5427C51.6401 24.4567 51.6222 24.3866 51.586 24.3297M50.7718 25.8991C50.7474 25.9031 50.7231 25.9073 50.6988 25.9117C50.43 25.9604 50.4675 25.9834 50.6813 25.9932M50.7718 25.8991C50.742 25.9308 50.7118 25.9622 50.6813 25.9932M50.6813 25.9932C51.2242 26.0179 52.9035 25.9577 53.5937 26.019C53.6637 26.0252 54.1204 26.0505 53.8317 26.0928C53.1882 26.1872 52.5486 26.2905 51.9147 26.4418C51.4685 26.5482 51.0533 26.623 50.5959 26.623C50.5919 26.623 50.2944 26.6295 50.3514 26.576C50.5532 26.3866 51.1608 26.4372 50.4897 26.2505C50.4697 26.245 50.4496 26.2394 50.4295 26.234M50.6813 25.9932C50.5999 26.076 50.516 26.1563 50.4295 26.234M50.4295 26.234C50.3297 26.2067 50.2295 26.1808 50.1291 26.156M50.4295 26.234C50.3891 26.2703 50.348 26.306 50.3064 26.3411C50.2384 26.3984 49.9612 26.6901 49.8561 26.6901C49.8502 26.6901 50.0298 26.3277 50.0298 26.3277C50.0624 26.2702 50.0955 26.2129 50.1291 26.156M50.1291 26.156C49.9111 26.1023 49.6918 26.0542 49.4715 26.0109M48.3152 25.8252C48.4977 25.6192 48.6883 25.4375 48.7817 25.3413C49.2362 24.8729 49.788 24.3683 50.4212 24.1767M52.4204 21.9464C52.4624 21.7167 52.5149 21.4892 52.5755 21.2637M52.4204 21.9464C52.4108 21.9987 52.4018 22.0511 52.3933 22.1036M52.5755 21.2637C52.4601 21.2809 52.345 21.2998 52.2301 21.3204M52.5755 21.2637C52.5845 21.2305 52.5936 21.1974 52.6028 21.1643M52.2301 21.3204C51.5653 21.4397 50.9097 21.6162 50.2742 21.8485C49.943 21.9696 48.9502 22.2993 49.2996 22.2646C50.2829 22.1669 51.3128 21.7052 52.2301 21.3204ZM52.2301 21.3204C52.2775 21.3005 52.3246 21.2808 52.3714 21.2614C52.4487 21.2293 52.5258 21.1969 52.6028 21.1643M52.6028 21.1643C52.6575 20.9689 52.7182 20.7749 52.7833 20.5821M52.7833 20.5821C51.104 21.1421 49.5279 21.9601 47.9101 22.6806C47.6805 22.7828 47.4467 22.8887 47.2056 22.9591C47.0363 23.0085 47.5033 22.7621 47.6624 22.684C49.3786 21.8408 51.1356 21.0841 52.8799 20.3056M52.7833 20.5821C52.8145 20.4896 52.8468 20.3975 52.8799 20.3056M52.8799 20.3056C52.9752 20.263 53.0706 20.2204 53.1659 20.1776C53.2577 20.1365 54.5032 19.6694 53.8575 19.765C53.5734 19.807 53.2919 19.8636 53.0128 19.9318M52.8799 20.3056C52.8819 20.2998 52.884 20.2941 52.8861 20.2884C52.9289 20.1699 52.9708 20.0509 53.0128 19.9318M53.0128 19.9318C51.9578 20.1895 50.9365 20.6128 49.9397 21.0399C49.7089 21.1388 49.4819 21.2408 49.2569 21.3466M53.0128 19.9318C53.0805 19.7397 53.1484 19.5475 53.2203 19.3573M49.2569 21.3466C48.9829 21.4754 48.7119 21.6098 48.4408 21.7512C47.9672 21.9982 48.5122 21.7239 49.2569 21.3466ZM49.2569 21.3466C49.9024 21.0196 50.6979 20.6152 51.1105 20.4058C51.8075 20.0521 52.5187 19.7135 53.2203 19.3573M53.2203 19.3573C53.7126 19.1074 54.2001 18.8489 54.6745 18.5705C55.0222 18.3665 54.6037 18.4254 54.4493 18.4497C54.1246 18.5009 53.8096 18.5835 53.502 18.6886M53.2203 19.3573C53.3061 19.1304 53.3978 18.9063 53.502 18.6886M53.502 18.6886C52.8232 18.9203 52.1803 19.2616 51.548 19.6173C50.4501 20.2349 49.3621 20.8942 48.3104 21.6068M53.502 18.6886C53.5749 18.5361 53.6541 18.3867 53.7417 18.2417C54.258 17.3868 55.053 17.5062 55.9257 17.564C56.3397 17.5914 56.7986 17.7353 57.2123 17.6814C57.3304 17.666 57.0599 17.5712 57.0419 17.564C56.5073 17.3485 55.7779 17.3986 55.2149 17.4566C54.3487 17.5458 53.4957 17.6847 52.6223 17.6847C51.3853 17.6847 50.1379 17.7243 48.904 17.8189C47.8746 17.8979 47.1146 18.2431 46.4015 19.0167C46.1125 19.3302 45.6876 19.7176 45.652 20.181C45.6378 20.3665 45.684 20.3424 45.7775 20.2213C45.9117 20.0475 47.3868 18.7839 47.4919 19.1677C47.5299 19.3064 47.1139 19.7388 47.0545 19.8186C46.6122 20.4132 46.103 20.9986 45.7132 21.6304C45.6576 21.7205 45.4987 22.1834 45.7325 21.9458C46.2469 21.4229 46.7485 20.8879 47.2732 20.3756C48.2097 19.4611 49.2285 18.3847 50.509 18.0303C51.0012 17.8941 50.464 18.347 50.3482 18.4631C49.5899 19.2243 48.784 19.9165 48.0001 20.6474C47.6237 20.9983 47.7189 21.0276 48.0484 20.7245C49.5359 19.3564 51.3324 17.9263 53.4072 17.9263C53.5388 17.9263 53.2939 18.0202 53.2688 18.037C52.9011 18.2836 52.547 18.5554 52.1881 18.8154C50.8981 19.7498 49.6028 20.676 48.3104 21.6068M48.3104 21.6068C47.7145 22.0107 47.1302 22.4317 46.5623 22.8719M48.3104 21.6068C47.7268 22.0272 47.1439 22.4485 46.5623 22.8719M52.3933 22.1036C52.3483 22.3829 52.3193 22.6656 52.3103 22.9524C52.3067 23.0663 52.2989 23.1964 52.3074 23.3231M52.3933 22.1036C52.5197 22.0458 52.6521 22.0049 52.7896 21.9861C53.4227 21.8995 53.3896 22.2427 53.144 22.6614M52.3933 22.1036C51.996 22.2853 51.658 22.6337 51.4065 22.9859C51.3084 23.1233 50.9704 23.5333 51.2585 23.6033C51.3769 23.632 51.4989 23.6509 51.6232 23.6612M52.3074 23.3231C52.3147 23.4323 52.3342 23.5388 52.379 23.6301M52.3074 23.3231C52.5714 23.0756 52.8503 22.8508 53.144 22.6614M52.3074 23.3231C52.2244 23.4009 52.1429 23.4809 52.0629 23.5627M52.379 23.6301C52.3795 23.6312 52.38 23.6322 52.3805 23.6332M52.379 23.6301C52.3778 23.6314 52.3766 23.6327 52.3754 23.634M52.379 23.6301C52.6152 23.3796 52.9475 22.9964 53.144 22.6614M52.3805 23.6332C52.4158 23.7039 52.4664 23.7653 52.5387 23.8113C52.5744 23.8341 52.7911 23.9748 52.8617 23.9523M52.3805 23.6332C52.3788 23.6335 52.3771 23.6337 52.3754 23.634M52.8617 23.9523C52.8727 23.9487 52.8802 23.9413 52.8829 23.9287C52.8994 23.8512 52.8861 23.6111 52.8861 23.6905C52.8861 23.7808 52.8771 23.8675 52.8617 23.9523ZM52.8617 23.9523C52.831 24.1212 52.7747 24.2825 52.7124 24.4488C52.6379 24.6475 52.5209 24.8679 52.484 25.0796C52.453 25.2576 52.4036 24.7866 52.3972 24.7407C52.3819 24.6318 52.3246 24.155 52.1971 23.8163M52.1971 23.8163C52.1758 23.7598 52.1526 23.7071 52.1273 23.6607M52.1971 23.8163C52.1774 23.8356 52.1602 23.852 52.1463 23.865C52.1117 23.8971 51.783 24.2111 51.586 24.3297M52.1971 23.8163C52.2438 23.7706 52.3052 23.7082 52.3754 23.634M52.1273 23.6607C52.1072 23.6237 52.0857 23.5907 52.0629 23.5627M52.1273 23.6607C52.0715 23.6649 52.0158 23.6679 51.9603 23.6695M52.1273 23.6607C52.21 23.6544 52.2928 23.6454 52.3754 23.634M52.0629 23.5627C51.964 23.4418 51.8392 23.4165 51.6831 23.5832C51.6616 23.6061 51.6417 23.6323 51.6232 23.6612M52.0629 23.5627C52.0284 23.598 51.9942 23.6336 51.9603 23.6695M51.6232 23.6612C51.5287 23.8085 51.4723 24.0236 51.4494 24.2056M51.6232 23.6612C51.7341 23.6704 51.8468 23.6728 51.9603 23.6695M51.4494 24.2056C51.4469 24.2251 51.4448 24.2443 51.4431 24.263M51.4494 24.2056C51.4586 24.2108 51.4676 24.2163 51.4764 24.2221M51.4494 24.2056C51.2704 24.104 51.0031 24.0903 50.8436 24.0999C50.6991 24.1085 50.5583 24.1353 50.4212 24.1767M51.4431 24.263C51.4411 24.2855 51.4396 24.3072 51.4386 24.328C51.4355 24.3968 51.4974 24.383 51.586 24.3297M51.4431 24.263C51.4542 24.2493 51.4653 24.2357 51.4764 24.2221M51.586 24.3297C51.5586 24.2867 51.5209 24.2512 51.4764 24.2221M51.9603 23.6695C51.7924 23.8473 51.631 24.0328 51.4764 24.2221M50.4212 24.1767C50.3421 23.4515 49.5596 23.2111 48.9168 23.8046C48.8602 23.8569 48.8051 23.9115 48.7517 23.968M48.7517 23.968C48.521 24.2122 48.3219 24.4935 48.1635 24.7953M48.7517 23.968C48.7856 23.9862 48.8192 24.0078 48.8525 24.0328C49.3861 24.4335 48.4982 25.3322 48.1513 25.4956C47.8325 25.6458 47.8961 25.421 47.9776 25.2071C48.031 25.0668 48.0933 24.929 48.1635 24.7953M48.7517 23.968C48.2603 23.7039 47.7121 24.1275 47.3946 24.5931M48.1635 24.7953C48.1163 24.8308 48.0679 24.8663 48.0189 24.9011M48.1635 24.7953C48.4596 24.5724 48.7094 24.3478 48.7753 24.2676M47.3946 24.5931C47.3043 24.7255 47.2327 24.8613 47.1863 24.9856C47.1248 25.1507 47.2017 25.249 47.3292 25.2946M47.3946 24.5931C47.6058 24.6318 47.9251 24.7371 48.0189 24.9011M47.3946 24.5931C47.3341 24.5819 47.2824 24.5763 47.2475 24.5763C46.9081 24.5763 46.8235 24.9168 46.9354 25.2205C46.9862 25.3581 47.1357 25.3635 47.3292 25.2946M47.3292 25.2946C47.5226 25.3637 47.8325 25.3115 47.9519 25.1869C48.0564 25.0779 48.0653 24.9823 48.0189 24.9011M47.3292 25.2946C47.5317 25.2226 47.7825 25.0692 48.0189 24.9011" stroke="white" stroke-width="1.52119" stroke-linecap="round"/>
</svg>
