<svg width="40" height="40" viewBox="0 0 40 40" fill="none" xmlns="http://www.w3.org/2000/svg">
<path d="M30.509 19.7259C30.8409 25.3549 26.2319 31.0002 19.8023 31.2934C13.7348 31.5701 8.48396 27.0152 8.02495 20.6619C7.54439 14.0103 12.4065 8.53941 18.8825 8.25642C25.3248 7.97524 30.8142 13.4772 30.509 19.7259ZM8.45128 19.768C8.37592 25.4897 13.0217 30.809 19.282 30.8147C25.0136 30.8201 30.2238 26.278 30.1571 19.6074C30.0962 13.4889 25.3584 8.73223 19.2157 8.73654C13.128 8.74084 8.40126 13.9131 8.45128 19.768Z" fill="#0D1830"/>
<path d="M10.3176 30.8623C9.08619 33.0241 7.95768 35.0095 6.81873 36.9887C6.77539 37.0639 6.63046 37.0784 6.50977 37.1312C6.56133 36.021 8.98973 31.9675 10.3176 30.8623Z" fill="#0D1830"/>
<path d="M19.1686 0C19.2304 0.174689 19.3333 0.345759 19.3475 0.5243C19.4773 2.13683 19.2212 6.05681 18.9023 6.64953C18.6344 4.3695 18.9312 2.21636 18.8918 0.061636C18.9841 0.0410177 19.0763 0.0203917 19.1686 0Z" fill="#0D1830"/>
<path d="M37.2901 33.0551C36.008 32.954 32.7518 30.4322 32.3086 29.2588C32.4593 29.3442 32.5593 29.3859 32.6422 29.45C34.1502 30.6169 35.6561 31.7867 37.2901 33.0551Z" fill="#0D1830"/>
<path d="M33.4316 19.4369C34.5517 19.0653 38.6158 19.2635 39.5012 19.733C38.9637 19.9593 34.265 19.73 33.4316 19.4369Z" fill="#0D1830"/>
<path d="M21.5584 40.0004C21.4492 37.9443 21.3403 35.8883 21.2285 33.7803C21.6562 34.1684 21.7231 34.4779 21.7731 35.7753C21.7998 36.4708 21.9002 37.1642 21.912 37.8593C21.924 38.5678 22.044 39.2906 21.8209 39.985C21.7333 39.99 21.646 39.9952 21.5584 40.0004Z" fill="#0D1830"/>
<path d="M8.35086 8.21517C7.07988 7.83226 4.63928 5.92495 4.34766 5.13533C4.43457 5.12061 4.55104 5.06396 4.5926 5.09931C5.83625 6.14926 7.20102 7.0508 8.35086 8.21517Z" fill="#0D1830"/>
<path d="M4.22272 19.3724C2.7239 19.6672 1.22065 19.9085 -0.5 19.7274C0.0636958 19.1345 0.613822 19.3941 1.09172 19.3248C1.59006 19.2528 2.09131 19.1873 2.59344 19.1608C3.12423 19.1329 3.6577 19.1544 4.19005 19.1544C4.20094 19.2274 4.21183 19.2999 4.22272 19.3724Z" fill="#0D1830"/>
<path d="M31.3398 9.84651C31.4172 9.04013 32.3703 7.60228 33.3801 6.64002C33.5991 6.43134 33.8087 6.20817 34.1779 6.41865C33.2499 7.53975 32.3321 8.64816 31.3398 9.84651Z" fill="#0D1830"/>
</svg>
