<svg width="124" height="32" viewBox="0 0 124 32" fill="none" xmlns="http://www.w3.org/2000/svg">
<path d="M61.154 31C61.154 27.766 61.0768 24.5184 61.6336 21.3173C62.0152 19.123 62.7462 17.0771 63.5175 15" stroke="#FCD545" stroke-width="2" stroke-linecap="round"/>
<path d="M66.5322 27.1256C68.911 25.6631 71.1418 23.9553 73.7398 22.9581C74.3957 22.7064 75.1078 22.4363 75.8016 22.338C75.8633 22.3292 76.0502 22.3256 75.988 22.3256" stroke="#FCD545" stroke-width="2" stroke-linecap="round"/>
<path d="M48 23.708C49.9305 23.8012 51.7878 25.3251 53.2309 26.4784C54.2871 27.3225 55.0632 28.2598 55.8902 29.308" stroke="#FCD545" stroke-width="2" stroke-linecap="round"/>
<path d="M108.406 17.8104C110.714 15.499 113.087 13.2332 114.975 10.5474C116.269 8.70637 117.207 6.72172 118.139 4.68595M107.332 11.1975C106.678 8.45211 106.305 5.63712 105.162 3.06765C104.874 2.41902 104.558 1.71699 104.133 1.15088C104.095 1.10051 103.965 0.964306 104.009 1.0088M123 22C121.556 20.6869 119.142 20.4485 117.289 20.2414C115.932 20.0899 114.709 20.2051 113.371 20.3632" stroke="#1F73F0" stroke-width="2" stroke-linecap="round"/>
<path d="M15.5943 17.8104C13.2858 15.499 10.9126 13.2332 9.02505 10.5474C7.73124 8.70637 6.79261 6.72172 5.86052 4.68595M16.6677 11.1975C17.3217 8.45211 17.695 5.63712 18.8377 3.06765C19.1262 2.41902 19.4416 1.71699 19.8667 1.15088C19.9045 1.10051 20.0353 0.964306 19.9909 1.0088M1 22C2.44449 20.6869 4.858 20.4485 6.71129 20.2414C8.06768 20.0899 9.29077 20.2051 10.6293 20.3632" stroke="#1F73F0" stroke-width="2" stroke-linecap="round"/>
</svg>
