<svg width="108" height="70" viewBox="0 0 108 70" fill="none" xmlns="http://www.w3.org/2000/svg">
<path d="M111.887 59.3381C111.887 52.2467 112.195 45.0867 111.793 38.0078C111.172 27.0833 104.579 18.5724 93.2846 17.5819C80.8366 16.4902 69.593 21.3469 61.1495 30.3952C53.9739 38.0846 47.1894 48.8011 47.2399 59.715C47.266 65.3497 51.2663 68.3831 56.6072 68.9292C63.8436 69.6691 69.2484 64.51 71.6099 58.0568C74.6975 49.6194 74.2675 39.2863 69.4424 31.6011C62.343 20.2935 48.9323 17.0028 36.3837 16.4136C20.8954 15.6864 3.29087 24.431 1.17635 41.343C0.643663 45.6035 1.07475 50.2134 5.92595 51.3863C13.3905 53.191 20.0442 49.9462 24.8867 44.339C33.9568 33.8366 32.8253 17.4549 22.3234 8.49953C19.2951 5.91725 16.1748 4.10158 12.6357 2.35669C11.9457 2.0165 9.70773 1.55211 9.4316 0.999998" stroke="#FFE06C" stroke-width="1.51444" stroke-linecap="round"/>
</svg>
